# File created by Blade
# Date/Time:  Mon Sep 22 17:46:01 2014
# Frame Rate: 120.000 fps
#------------------------------------------------------
:FULLY-SPECIFIED
:DEGREES
3683
root 4.730994 38.169818 3.895584 17.485765 -45.490979 -30.333388
RightUpLeg 9.884879 -30.806435 -15.773697
RightLeg 55.993571 -0.000000 -0.000000
RightFoot -5.571737 -34.744371 18.920602
RightToeBase -3.665777 -0.000000 0.000000
LeftUpLeg 6.191008 15.355288 13.387514
LeftLeg 5.520599 -0.000000 -0.000000
LeftFoot -22.006193 34.810465 -18.056282
LeftToeBase 4.578799 -0.000000 -0.000000
Spine 16.415937 -8.055776 -14.438603
RightShoulder -5.618044 -32.484065 -0.449379
RightArm 11.882061 -9.061462 73.502166
RightForeArm 14.107202 0.000000 61.474412
RightHand -1.689054 -0.000000 -20.371528
RightHandThumb1 -24.326973 -0.000000 -32.862282
LeftShoulder -17.209159 30.696890 13.173884
LeftArm 49.045335 -50.162712 -71.955696
LeftForeArm 27.646542 0.000000 103.491527
LeftHand -35.922805 -0.000000 30.442401
LeftHandThumb1 -26.253704 0.000000 33.147579
Head 17.477873 36.636209 21.281671
3684
root 4.724588 38.169269 3.891608 17.514491 -45.547472 -30.357504
RightUpLeg 9.882821 -30.653125 -15.668778
RightLeg 55.787902 -0.000000 -0.000000
RightFoot -5.606621 -34.757022 18.968285
RightToeBase -3.579018 -0.000000 0.000000
LeftUpLeg 6.205392 15.362927 13.388154
LeftLeg 5.512964 -0.000000 -0.000000
LeftFoot -21.953925 34.869085 -17.983379
LeftToeBase 4.487735 -0.000000 -0.000000
Spine 16.423841 -7.995116 -14.486861
RightShoulder -5.636210 -32.476867 -0.457273
RightArm 11.890806 -9.155346 73.531760
RightForeArm 14.085976 -0.000000 61.500413
RightHand -1.741376 0.000000 -20.357879
RightHandThumb1 -24.326973 -0.000000 -32.862282
LeftShoulder -17.216084 30.700193 13.206037
LeftArm 49.045741 -50.205047 -71.907108
LeftForeArm 27.539348 -0.000000 103.474077
LeftHand -35.993318 0.000000 30.404095
LeftHandThumb1 -26.253704 0.000000 33.147579
Head 17.359988 36.504973 21.238529
3685
root 4.719126 38.168578 3.888523 17.537498 -45.605836 -30.369580
RightUpLeg 9.876119 -30.498401 -15.574140
RightLeg 55.587288 -0.000000 -0.000000
RightFoot -5.675993 -34.728495 19.093445
RightToeBase -3.598259 -0.000000 0.000000
LeftUpLeg 6.221111 15.381568 13.383679
LeftLeg 5.492923 -0.000000 -0.000000
LeftFoot -22.020070 34.909096 -18.078455
LeftToeBase 4.569393 -0.000000 -0.000000
Spine 16.417596 -7.956059 -14.542999
RightShoulder -5.617548 -32.496918 -0.482207
RightArm 11.910221 -9.234676 73.565564
RightForeArm 14.030967 -0.000000 61.541223
RightHand -1.845135 0.000000 -20.390724
RightHandThumb1 -24.326973 -0.000000 -32.862282
LeftShoulder -17.215636 30.693408 13.231766
LeftArm 49.041731 -50.276281 -71.871244
LeftForeArm 27.529501 -0.000000 103.425852
LeftHand -36.038202 -0.000000 30.405972
LeftHandThumb1 -26.253704 0.000000 33.147579
Head 17.301262 36.405699 21.222884
3686
root 4.714079 38.168355 3.883902 17.578715 -45.669671 -30.396119
RightUpLeg 9.847678 -30.318708 -15.446985
RightLeg 55.374763 -0.000000 -0.000000
RightFoot -5.742579 -34.780532 19.193042
RightToeBase -3.571169 -0.000000 0.000000
LeftUpLeg 6.220798 15.410650 13.386506
LeftLeg 5.494113 -0.000000 -0.000000
LeftFoot -22.039737 34.950651 -18.096738
LeftToeBase 4.562968 -0.000000 -0.000000
Spine 16.402263 -7.903320 -14.597473
RightShoulder -5.676913 -32.573781 -0.477111
RightArm 12.062104 -9.366361 73.550778
RightForeArm 14.032257 0.000000 61.514876
RightHand -1.866911 -0.000000 -20.400574
RightHandThumb1 -24.326973 -0.000000 -32.862282
LeftShoulder -17.175190 30.631194 13.292433
LeftArm 48.936978 -50.380922 -71.782234
LeftForeArm 27.546694 -0.000000 103.398339
LeftHand -35.959694 -0.000000 30.209523
LeftHandThumb1 -26.253704 0.000000 33.147579
Head 17.231781 36.298510 21.204929
3687
root 4.708865 38.168699 3.878763 17.627239 -45.724391 -30.422107
RightUpLeg 9.813477 -30.162942 -15.316756
RightLeg 55.156367 -0.000000 -0.000000
RightFoot -5.653690 -34.863803 19.081824
RightToeBase -3.706269 -0.000000 0.000000
LeftUpLeg 6.205677 15.437502 13.390677
LeftLeg 5.503880 -0.000000 -0.000000
LeftFoot -22.061476 34.976936 -18.135768
LeftToeBase 4.549053 -0.000000 -0.000000
Spine 16.375207 -7.861934 -14.650888
RightShoulder -5.678117 -32.596248 -0.467476
RightArm 12.095051 -9.435728 73.554956
RightForeArm 13.997132 -0.000000 61.538749
RightHand -1.864590 0.000000 -20.394950
RightHandThumb1 -24.326973 -0.000000 -32.862282
LeftShoulder -17.147147 30.603470 13.339360
LeftArm 48.956812 -50.476996 -71.797780
LeftForeArm 27.617766 0.000000 103.339987
LeftHand -35.981755 -0.000000 30.165992
LeftHandThumb1 -26.253704 0.000000 33.147579
Head 17.190534 36.196168 21.201647
3688
root 4.702802 38.169853 3.873041 17.677418 -45.767514 -30.445963
RightUpLeg 9.781554 -30.032777 -15.191720
RightLeg 54.938328 -0.000000 -0.000000
RightFoot -5.643018 -34.944356 19.111214
RightToeBase -3.964366 -0.000000 0.000000
LeftUpLeg 6.174176 15.452909 13.399184
LeftLeg 5.535945 -0.000000 -0.000000
LeftFoot -22.116937 34.976686 -18.221192
LeftToeBase 4.560497 -0.000000 -0.000000
Spine 16.342152 -7.848290 -14.710812
RightShoulder -5.661387 -32.615793 -0.456810
RightArm 12.126780 -9.495936 73.553805
RightForeArm 13.964921 -0.000000 61.557201
RightHand -1.821174 -0.000000 -20.346236
RightHandThumb1 -24.326973 -0.000000 -32.862282
LeftShoulder -17.154101 30.604844 13.371296
LeftArm 49.074288 -50.567524 -71.908102
LeftForeArm 27.654171 -0.000000 103.261368
LeftHand -35.943685 -0.000000 30.209206
LeftHandThumb1 -26.253704 0.000000 33.147579
Head 17.178355 36.113596 21.209949
3689
root 4.696903 38.171244 3.866440 17.724091 -45.792539 -30.461585
RightUpLeg 9.756714 -29.944868 -15.082306
RightLeg 54.735776 -0.000000 -0.000000
RightFoot -5.627754 -35.028941 19.145303
RightToeBase -4.018101 -0.000000 0.000000
LeftUpLeg 6.124302 15.432588 13.403010
LeftLeg 5.581012 -0.000000 -0.000000
LeftFoot -22.163855 34.998560 -18.292703
LeftToeBase 4.545141 -0.000000 -0.000000
Spine 16.308799 -7.843923 -14.773669
RightShoulder -5.666404 -32.658392 -0.422198
RightArm 12.191537 -9.547241 73.538283
RightForeArm 13.920671 0.000000 61.564785
RightHand -1.760444 0.000000 -20.285437
RightHandThumb1 -24.326973 -0.000000 -32.862282
LeftShoulder -17.148004 30.592687 13.418164
LeftArm 49.188194 -50.661012 -72.021724
LeftForeArm 27.649808 0.000000 103.187343
LeftHand -35.871897 -0.000000 30.234267
LeftHandThumb1 -26.253704 0.000000 33.147579
Head 17.159392 36.054538 21.212033
3690
root 4.690507 38.173061 3.859766 17.784242 -45.797978 -30.475897
RightUpLeg 9.721490 -29.880675 -14.963428
RightLeg 54.541451 -0.000000 -0.000000
RightFoot -5.631981 -35.084727 19.258486
RightToeBase -4.163506 -0.000000 0.000000
LeftUpLeg 6.041049 15.396137 13.406010
LeftLeg 5.653628 -0.000000 -0.000000
LeftFoot -22.238797 35.019215 -18.395494
LeftToeBase 4.579408 -0.000000 -0.000000
Spine 16.260474 -7.864339 -14.831126
RightShoulder -5.688125 -32.644214 -0.378384
RightArm 12.203439 -9.621515 73.516138
RightForeArm 13.882875 0.000000 61.584125
RightHand -1.746808 -0.000000 -20.230314
RightHandThumb1 -24.326973 -0.000000 -32.862282
LeftShoulder -17.146964 30.574956 13.459112
LeftArm 49.338314 -50.760439 -72.193259
LeftForeArm 27.805460 0.000000 103.130661
LeftHand -35.941110 0.000000 30.004157
LeftHandThumb1 -26.253704 0.000000 33.147579
Head 17.154035 35.992136 21.227297
3691
root 4.684920 38.174663 3.854793 17.813925 -45.788639 -30.470748
RightUpLeg 9.716761 -29.850886 -14.878829
RightLeg 54.358719 -0.000000 -0.000000
RightFoot -5.602746 -35.069124 19.305193
RightToeBase -3.538730 -0.000000 0.000000
LeftUpLeg 5.963839 15.354430 13.400956
LeftLeg 5.731050 -0.000000 -0.000000
LeftFoot -22.288038 35.053744 -18.449549
LeftToeBase 4.630419 -0.000000 -0.000000
Spine 16.239423 -7.897879 -14.899828
RightShoulder -5.717214 -32.614426 -0.330527
RightArm 12.215849 -9.696345 73.492826
RightForeArm 13.868792 -0.000000 61.592762
RightHand -1.732556 -0.000000 -20.208176
RightHandThumb1 -24.326973 -0.000000 -32.862282
LeftShoulder -17.124413 30.525336 13.505253
LeftArm 49.455213 -50.872104 -72.352624
LeftForeArm 27.913151 0.000000 103.089134
LeftHand -36.004595 -0.000000 29.791205
LeftHandThumb1 -26.253704 0.000000 33.147579
Head 17.154801 35.928501 21.244258
3692
root 4.679449 38.176051 3.848854 17.848077 -45.748540 -30.451112
RightUpLeg 9.709726 -29.848120 -14.795547
RightLeg 54.180484 -0.000000 -0.000000
RightFoot -5.573418 -35.105014 19.392339
RightToeBase -3.630874 -0.000000 0.000000
LeftUpLeg 5.856578 15.296898 13.393935
LeftLeg 5.821055 -0.000000 -0.000000
LeftFoot -22.365926 35.030222 -18.561662
LeftToeBase 4.658543 -0.000000 -0.000000
Spine 16.210071 -7.977170 -14.965574
RightShoulder -5.746870 -32.571064 -0.291843
RightArm 12.219468 -9.771452 73.479329
RightForeArm 13.852252 -0.000000 61.597405
RightHand -1.757812 -0.000000 -20.213382
RightHandThumb1 -24.326973 -0.000000 -32.862282
LeftShoulder -17.105278 30.475989 13.535125
LeftArm 49.525266 -50.999813 -72.454504
LeftForeArm 27.978753 -0.000000 103.040186
LeftHand -35.932940 -0.000000 29.755529
LeftHandThumb1 -26.253704 0.000000 33.147579
Head 17.153453 35.921960 21.256428
3693
root 4.672359 38.177030 3.845562 17.862211 -45.701760 -30.432057
RightUpLeg 9.741850 -29.861041 -14.738247
RightLeg 53.994124 -0.000000 -0.000000
RightFoot -5.559115 -35.082828 19.369475
RightToeBase -3.667972 -0.000000 0.000000
LeftUpLeg 5.775013 15.286624 13.400514
LeftLeg 5.906490 -0.000000 -0.000000
LeftFoot -22.404960 34.998917 -18.593887
LeftToeBase 4.673106 -0.000000 -0.000000
Spine 16.199754 -8.062627 -15.029740
RightShoulder -5.779812 -32.547783 -0.252285
RightArm 12.246865 -9.829413 73.460645
RightForeArm 13.834408 0.000000 61.602694
RightHand -1.799517 -0.000000 -20.196395
RightHandThumb1 -24.326973 -0.000000 -32.862282
LeftShoulder -17.116122 30.444980 13.542149
LeftArm 49.618481 -51.124042 -72.559817
LeftForeArm 28.104462 -0.000000 102.997820
LeftHand -35.872976 -0.000000 29.551391
LeftHandThumb1 -26.253704 0.000000 33.147579
Head 17.152139 35.927666 21.262872
3694
root 4.666797 38.177044 3.842352 17.859742 -45.686023 -30.421435
RightUpLeg 9.783699 -29.844223 -14.691993
RightLeg 53.808381 -0.000000 -0.000000
RightFoot -5.637269 -35.064048 19.411037
RightToeBase -3.500596 -0.000000 0.000000
LeftUpLeg 5.741221 15.315440 13.411630
LeftLeg 5.958287 -0.000000 -0.000000
LeftFoot -22.436368 34.956534 -18.611988
LeftToeBase 4.743774 -0.000000 -0.000000
Spine 16.229423 -8.117297 -15.100222
RightShoulder -5.806160 -32.492165 -0.226926
RightArm 12.264679 -9.884926 73.457385
RightForeArm 13.835964 -0.000000 61.610133
RightHand -1.830770 -0.000000 -20.209975
RightHandThumb1 -24.326973 -0.000000 -32.862282
LeftShoulder -17.163499 30.401247 13.528100
LeftArm 49.783213 -51.217952 -72.712340
LeftForeArm 28.198788 0.000000 102.949692
LeftHand -35.910954 -0.000000 29.676125
LeftHandThumb1 -26.253704 0.000000 33.147579
Head 17.109128 35.931176 21.226411
3695
root 4.658620 38.177488 3.841243 17.869132 -45.667606 -30.413606
RightUpLeg 9.826780 -29.828588 -14.644372
RightLeg 53.613659 -0.000000 -0.000000
RightFoot -5.685854 -35.087379 19.443726
RightToeBase -3.408406 -0.000000 0.000000
LeftUpLeg 5.722382 15.355794 13.426941
LeftLeg 5.971105 -0.000000 -0.000000
LeftFoot -22.418767 34.910152 -18.594342
LeftToeBase 4.691403 -0.000000 -0.000000
Spine 16.208495 -8.169061 -15.168439
RightShoulder -5.804897 -32.478249 -0.204241
RightArm 12.271349 -9.906296 73.462512
RightForeArm 13.850777 0.000000 61.613078
RightHand -1.825178 -0.000000 -20.229575
RightHandThumb1 -24.326973 -0.000000 -32.862282
LeftShoulder -17.175999 30.389807 13.550697
LeftArm 49.898476 -51.278269 -72.850627
LeftForeArm 28.320226 -0.000000 102.950922
LeftHand -35.999516 0.000000 29.650267
LeftHandThumb1 -26.253704 0.000000 33.147579
Head 17.117279 35.822215 21.148887
